<svg class="svg-standalone-icon" width="100%" viewBox="64.99999999999997 182.13246389497075 105.73494532797821 105.73507221005846"><g data-paper-data="{&quot;fillRule&quot;:&quot;evenodd&quot;,&quot;fillRuleOriginal&quot;:&quot;evenodd&quot;,&quot;isIcon&quot;:true,&quot;iconStyle&quot;:&quot;standalone&quot;,&quot;selectedEffects&quot;:{&quot;container&quot;:&quot;circle_simple_outline2&quot;,&quot;transformation&quot;:&quot;&quot;,&quot;pattern&quot;:&quot;&quot;},&quot;bounds&quot;:{&quot;x&quot;:64.99999999999997,&quot;y&quot;:182.13246389497075,&quot;width&quot;:105.73494532797821,&quot;height&quot;:105.73507221005846},&quot;widthRatioIconToContainer&quot;:0.8283606474574973,&quot;heightRatioIconToContainer&quot;:0.8555297974548508,&quot;relativeBoundsIconToContainer&quot;:{&quot;top&quot;:-7.446204889613358e-7,&quot;left&quot;:-6.191474491157637e-7},&quot;iconType&quot;:&quot;icon&quot;,&quot;rawIconId&quot;:&quot;2154592&quot;,&quot;isDetailed&quot;:false,&quot;blockLetter&quot;:&quot;O&quot;,&quot;suitableAsStandaloneIcon&quot;:true}" fill-rule="evenodd"><path d="M117.86741,233.23128c0,0 0,0 0.00001,0c0.00001,0 0.00001,0 0.00001,0zM117.86741,233.23128c-0.00877,0.00022 -12.75157,0.31464 -17.40925,-1.40368c-1.8139,-0.66894 -1.66407,-2.33744 -1.62294,-2.79497c0.00299,-0.03427 0.00552,-0.06181 0.00652,-0.0816c0.92104,-17.3888 6.60066,-33.32627 13.91725,-38.08385c0.23971,-0.15761 1.57428,-1.09702 5.10842,-1.09702c3.53413,0 4.8687,0.93941 5.10842,1.09702c7.3166,4.75758 12.99731,20.69505 13.91725,38.08385c0.00099,0.01979 0.00354,0.04732 0.00652,0.0816c0.04113,0.45754 0.19095,2.12603 -1.62294,2.79497c-4.65768,1.71832 -17.40049,1.40389 -17.40925,1.40368zM95.79025,229.66586c-0.05938,1.22014 -0.53449,2.68651 -2.89272,3.47044c-1.98792,0.66297 -13.13873,0.7731 -17.64355,-0.1642c-1.26912,-0.26504 -1.1916,-1.19692 -1.17159,-1.43707c0.00088,-0.01039 0.00165,-0.01946 0.0021,-0.02709c1.39085,-19.21795 15.26167,-34.97618 33.55094,-39.20457c0.5356,-0.12318 0.78604,0.38655 0.38113,0.78825c-6.69243,6.63416 -11.41971,20.19394 -12.22631,36.57424zM139.94457,229.66586c-0.80661,-16.3803 -5.53389,-29.94008 -12.22631,-36.57424c-0.40491,-0.4017 -0.15446,-0.91143 0.38113,-0.78825c18.28927,4.22839 32.16009,19.98663 33.55094,39.20457c0.00044,0.00763 0.00122,0.0167 0.0021,0.02709c0.02002,0.24016 0.09752,1.17204 -1.17159,1.43707c-4.50482,0.93729 -15.65563,0.82717 -17.64355,0.1642c-2.35823,-0.78394 -2.83334,-2.25031 -2.89272,-3.47044zM95.79025,240.33404c0.80661,16.3803 5.53389,29.94008 12.22631,36.57645c0.40491,0.39949 0.15446,0.90921 -0.38113,0.78604c-18.28927,-4.22618 -32.16009,-19.98663 -33.55094,-39.20457c-0.00044,-0.00752 -0.00122,-0.01636 -0.0021,-0.02643c-0.0199,-0.23784 -0.0983,-1.17248 1.17159,-1.43563c4.50482,-0.9394 15.65563,-0.82927 17.64355,-0.16629c2.35823,0.78615 2.83334,2.25252 2.89272,3.47044zM139.94458,240.33404c0.05938,-1.21793 0.53449,-2.6843 2.89272,-3.47044c1.98792,-0.66297 13.13873,-0.7731 17.64355,0.16629c1.26989,0.26315 1.19149,1.1978 1.17159,1.43563c-0.00088,0.01007 -0.00165,0.01891 -0.0021,0.02643c-1.39085,19.21795 -15.26167,34.97839 -33.55094,39.20457c-0.5356,0.12318 -0.78604,-0.38655 -0.38113,-0.78604c6.69243,-6.63637 11.41971,-20.19615 12.22631,-36.57645zM135.27666,238.17229c1.81322,0.67071 1.66418,2.33655 1.62305,2.79619c-0.0031,0.03472 -0.00564,0.06258 -0.00663,0.08259c-0.91994,17.38659 -6.60066,33.32406 -13.91725,38.08163c-0.23971,0.15756 -1.57428,1.09696 -5.10842,1.09696c-3.53413,0 -4.8687,-0.93939 -5.10842,-1.09696c-7.3166,-4.75758 -12.99621,-20.69505 -13.91725,-38.08163c-0.00099,-0.02001 -0.00354,-0.04788 -0.00663,-0.08259c-0.04113,-0.45964 -0.19018,-2.12548 1.62305,-2.79619c4.65928,-1.71891 17.40926,-1.40147 17.40926,-1.40147c0,0 12.74997,-0.31744 17.40926,1.40147zM80.48451,197.61698c4.87761,-4.87762 10.47899,-8.65408 16.80413,-11.32939c6.54924,-2.77008 13.4088,-4.15512 20.57869,-4.15512c7.17012,0 14.02982,1.38504 20.5791,4.15512c6.32506,2.67533 11.9264,6.4518 16.80404,11.32939c4.87764,4.87763 8.65407,10.47901 11.32929,16.80413c2.77013,6.54922 4.15519,13.40882 4.15519,20.57881c0,7.16991 -1.38506,14.0295 -4.15519,20.57879c-2.67522,6.32526 -6.45166,11.92661 -11.32929,16.80404c-4.87764,4.87764 -10.47898,8.65417 -16.80404,11.32961c-6.54928,2.77013 -13.40898,4.15519 -20.5791,4.15519c-7.16991,0 -14.02947,-1.38506 -20.57869,-4.15519c-6.32516,-2.67544 -11.92653,-6.45197 -16.80413,-11.32961c-4.87764,-4.87764 -8.6541,-10.47898 -11.32939,-16.80404c-2.77008,-6.54928 -4.15512,-13.40888 -4.15512,-20.57879c0,-7.16997 1.38504,-14.02957 4.15512,-20.57881c2.67533,-6.32514 6.4518,-11.92651 11.32939,-16.80413zM82.40757,270.45977c4.62756,4.62758 9.94106,8.21012 15.9405,10.74762c6.21063,2.62693 12.71705,3.9404 19.51926,3.9404c6.80249,0 13.30905,-1.31347 19.51968,-3.9404c5.99942,-2.53749 11.31292,-6.12004 15.9405,-10.74762c4.62737,-4.62758 8.20991,-9.94108 10.74762,-15.9405c2.62673,-6.21063 3.94009,-12.71708 3.94009,-19.51936c0,-6.8023 -1.31336,-13.30876 -3.94009,-19.51939c-2.53771,-5.99946 -6.12025,-11.31296 -10.74762,-15.9405c-4.62758,-4.62758 -9.94108,-8.21014 -15.9405,-10.74767c-6.21084,-2.62687 -12.7174,-3.94031 -19.51968,-3.94031c-6.80222,0 -13.30863,1.31344 -19.51926,3.94031c-5.99944,2.53756 -11.31294,6.12011 -15.9405,10.74767c-4.62756,4.62756 -8.21011,9.94106 -10.74764,15.9405c-2.62687,6.21063 -3.94031,12.71709 -3.94031,19.51939c0,6.80228 1.31344,13.30873 3.94031,19.51936c2.53756,5.99942 6.1201,11.31292 10.74764,15.9405z" data-paper-data="{&quot;isPathIcon&quot;:true}"></path></g></svg>